<svg xmlns="http://www.w3.org/2000/svg" viewBox="0 0 256 256" role="img" aria-labelledby="title desc">
  <title id="title">Lingo Stream Logo</title>
  <desc id="desc">Combined icon showing a GitHub Pages style browser window and a Chrome extension puzzle piece.</desc>
  <defs>
    <linearGradient id="bgGrad" x1="24" y1="24" x2="232" y2="232" gradientUnits="userSpaceOnUse">
      <stop offset="0" stop-color="#0f7a7d" />
      <stop offset="1" stop-color="#0a5f76" />
    </linearGradient>
    <linearGradient id="accentGrad" x1="90" y1="86" x2="170" y2="170" gradientUnits="userSpaceOnUse">
      <stop offset="0" stop-color="#8fe8ea" />
      <stop offset="1" stop-color="#ffffff" />
    </linearGradient>
  </defs>

  <rect x="20" y="20" width="216" height="216" rx="56" fill="url(#bgGrad)" />

  <rect x="52" y="68" width="96" height="72" rx="12" fill="none" stroke="#ffffff" stroke-width="10" />
  <line x1="52" y1="86" x2="148" y2="86" stroke="#ffffff" stroke-width="10" stroke-linecap="round" />
  <circle cx="66" cy="77" r="3.5" fill="#ffffff" />
  <circle cx="78" cy="77" r="3.5" fill="#ffffff" />
  <circle cx="90" cy="77" r="3.5" fill="#ffffff" />

  <path
    d="M160 96a14 14 0 0 1 14-14h6v-8a18 18 0 1 1 36 0v8h6a14 14 0 0 1 14 14v14a14 14 0 0 1-14 14h-6v8a18 18 0 1 1-36 0v-8h-6a14 14 0 0 1-14-14z"
    fill="url(#accentGrad)"
  />

  <path d="M62 176h132" stroke="#ffffff" stroke-width="12" stroke-linecap="round" opacity="0.85" />
  <path d="M62 196h80" stroke="#8fe8ea" stroke-width="10" stroke-linecap="round" opacity="0.95" />
</svg>
